<svg display="block" role="presentation" viewBox="0 0 40 40" xmlns="http://www.w3.org/2000/svg"><path d="M 8.565 3.39 L 5.03 3.39 L 5.03 0 L 3.535 0 L 3.535 3.39 L 0 3.39 L 0 4.853 L 3.535 4.853 L 3.535 13.528 L 5.03 13.528 L 5.03 4.853 L 8.565 4.853 Z" fill="rgb(228, 28, 63)" height="13.52821984116606px" id="kptkV5ZKy" transform="translate(15.677 20.621)" width="8.564656553512462px"/><path d="M 15.363 4.565 C 15.396 4.598 15.396 4.631 15.363 4.664 C 15.363 4.697 15.329 4.731 15.295 4.731 L 15.261 4.731 C 12.644 5.794 10.774 8.287 10.774 11.212 C 10.774 17.162 17.572 19.755 21.548 17.262 C 23.077 16.298 24.199 14.869 24.709 13.173 C 25.355 11.079 25.185 8.786 24.267 6.792 C 23.111 4.265 21.072 2.271 18.523 1.108 C 11.114 -2.249 0.102 2.171 0.001 12.376 C -0.101 24.774 15.227 33.25 19.373 38.967 C 19.373 39 19.407 39 19.441 39 C 19.475 39 19.475 38.967 19.475 38.934 C 17.878 31.754 6.628 25.106 6.628 14.071 C 6.628 9.85 9.721 5.595 15.193 4.498 L 15.227 4.498 C 15.261 4.498 15.329 4.498 15.363 4.565 Z" fill="rgb(228, 28, 63)" height="39px" id="OruxMbyjH" transform="translate(0.5 0.5)" width="25.096597149105218px"/><path d="M 0.007 37.696 C -0.027 37.762 0.075 37.795 0.109 37.729 C 3.915 31.912 18.258 24.932 18.258 12.368 C 18.258 2.496 7.552 -2.124 0.143 0.934 C 0.075 0.967 0.075 1 0.075 1.067 C 0.075 1.133 0.109 1.166 0.177 1.166 C 6.94 2.496 11.494 7.947 11.494 14.03 C 11.46 24.566 1.536 30.716 0.007 37.696 Z" fill="rgb(109, 110, 113)" height="37.76521210209255px" id="dLpf12cme" transform="translate(21.242 0.5)" width="18.25771562689923px"/></svg>